<svg width="25" height="27" viewBox="0 0 25 27" fill="none" xmlns="http://www.w3.org/2000/svg">
<g opacity="0.5">
<path d="M3.78227 5.87339C11.0327 4.05315 20.0466 4.16475 22.1299 6.53701C24.2131 8.90926 24.1702 16.8415 21.735 19.0181C19.3012 21.1946 8.73155 21.4015 5.38303 19.0181C1.8453 16.4985 3.89797 8.74789 3.78227 4.05315C3.85169 1.42605 1 1 1 1" stroke="#323232" stroke-width="2" stroke-linecap="round" stroke-linejoin="round"/>
<path d="M15.3005 11.712H19.0751" stroke="#323232" stroke-width="2" stroke-linecap="round" stroke-linejoin="round"/>
<path fill-rule="evenodd" clip-rule="evenodd" d="M5.91903 24.5177C6.32739 24.5177 6.65952 24.8498 6.65952 25.2582C6.65952 25.6679 6.32739 26 5.91903 26C5.50932 26 5.17719 25.6679 5.17719 25.2582C5.17719 24.8498 5.50932 24.5177 5.91903 24.5177Z" fill="black" stroke="#323232" stroke-width="2" stroke-linecap="round" stroke-linejoin="round"/>
<path fill-rule="evenodd" clip-rule="evenodd" d="M19.9822 24.5177C20.3919 24.5177 20.7241 24.8498 20.7241 25.2582C20.7241 25.6679 20.3919 26 19.9822 26C19.5739 26 19.2417 25.6679 19.2417 25.2582C19.2417 24.8498 19.5739 24.5177 19.9822 24.5177Z" fill="black" stroke="#323232" stroke-width="2" stroke-linecap="round" stroke-linejoin="round"/>
</g>
</svg>
