<svg width="16" height="16" viewBox="0 0 16 16" fill="none" xmlns="http://www.w3.org/2000/svg">
<path d="M12.5667 9.72307C12.3622 9.91978 12.2683 10.2043 12.3149 10.4833L13.0167 14.339C13.0759 14.6658 12.9369 14.9965 12.6614 15.1854C12.3914 15.3813 12.0323 15.4048 11.7378 15.2481L8.24146 13.4378C8.11989 13.3735 7.98489 13.339 7.84675 13.3351H7.63281C7.55861 13.3461 7.48598 13.3696 7.41967 13.4056L3.92253 15.2246C3.74965 15.3108 3.55387 15.3414 3.36205 15.3108C2.89471 15.223 2.58289 14.781 2.65946 14.3147L3.36205 10.459C3.40862 10.1776 3.31468 9.89157 3.11022 9.69173L0.259621 6.9488C0.0212163 6.71918 -0.0616729 6.37436 0.0472672 6.06323C0.15305 5.75289 0.423032 5.5264 0.749062 5.47547L4.67248 4.91042C4.97089 4.87986 5.23297 4.69961 5.36717 4.43316L7.09601 0.91438C7.13706 0.836011 7.18995 0.763911 7.25389 0.702783L7.32494 0.647925C7.36204 0.607173 7.40467 0.573474 7.45203 0.546045L7.53808 0.514697L7.67228 0.459839H8.00463C8.30145 0.490403 8.56275 0.666733 8.69932 0.930054L10.451 4.43316C10.5774 4.68942 10.8229 4.86732 11.1063 4.91042L15.0297 5.47547C15.3612 5.52249 15.6383 5.74976 15.7481 6.06323C15.8515 6.37749 15.7623 6.72232 15.5191 6.9488L12.5667 9.72307Z" fill="#FBD103"/>
</svg>
