<svg width="25" height="21" viewBox="0 0 25 21" fill="none" xmlns="http://www.w3.org/2000/svg">
<path d="M12.4999 16.5824C9.53702 16.5824 7.13859 14.289 6.91788 11.3828L2.82023 8.21597C2.28156 8.89175 1.78585 9.60621 1.38585 10.3875C1.29649 10.5642 1.24994 10.7595 1.24994 10.9576C1.24994 11.1556 1.29649 11.3509 1.38585 11.5277C3.50421 15.6609 7.69796 18.4574 12.4999 18.4574C13.5511 18.4574 14.5652 18.3011 15.5425 18.0488L13.5155 16.4804C13.1808 16.5451 12.8408 16.5792 12.4999 16.5824ZM24.7585 18.8519L20.4402 15.5144C21.7519 14.4089 22.8308 13.0536 23.614 11.5273C23.7033 11.3505 23.7499 11.1552 23.7499 10.9572C23.7499 10.7591 23.7033 10.5638 23.614 10.3871C21.4956 6.25386 17.3019 3.45738 12.4999 3.45738C10.4888 3.45982 8.51031 3.96612 6.74523 4.93003L1.7757 1.08902C1.71089 1.03859 1.63679 1.00143 1.55762 0.979653C1.47844 0.957878 1.39576 0.951917 1.31428 0.96211C1.2328 0.972304 1.15413 0.998453 1.08277 1.03906C1.0114 1.07967 0.948736 1.13395 0.898353 1.19878L0.131556 2.18589C0.0298368 2.31675 -0.015743 2.48264 0.00484145 2.6471C0.0254259 2.81156 0.110489 2.9611 0.241322 3.06285L23.2241 20.8257C23.2889 20.8762 23.363 20.9133 23.4422 20.9351C23.5214 20.9569 23.6041 20.9628 23.6856 20.9526C23.767 20.9425 23.8457 20.9163 23.9171 20.8757C23.9884 20.8351 24.0511 20.7808 24.1015 20.716L24.8687 19.7289C24.9703 19.598 25.0159 19.432 24.9952 19.2676C24.9745 19.1031 24.8894 18.9536 24.7585 18.8519ZM17.5819 13.305L16.0468 12.1183C16.1761 11.7447 16.2446 11.3527 16.2499 10.9574C16.2575 10.3786 16.1293 9.80605 15.8755 9.28579C15.6217 8.76554 15.2495 8.31205 14.7886 7.96176C14.3278 7.61147 13.7912 7.37414 13.2221 7.26884C12.6529 7.16353 12.0669 7.19319 11.5112 7.35542C11.7468 7.6746 11.8742 8.06069 11.8749 8.45738C11.8691 8.58938 11.8489 8.72036 11.8148 8.848L8.93937 6.62574C9.93819 5.79105 11.1982 5.33334 12.4999 5.33238C13.2387 5.33197 13.9704 5.47718 14.653 5.75972C15.3356 6.04226 15.9559 6.45657 16.4783 6.97899C17.0007 7.5014 17.415 8.12166 17.6976 8.8043C17.9801 9.48694 18.1253 10.2186 18.1249 10.9574C18.1249 11.8023 17.9183 12.5898 17.5819 13.3054V13.305Z" fill="black"/>
</svg>
