<svg width="45" height="45" viewBox="0 0 45 45" fill="none" xmlns="http://www.w3.org/2000/svg">
<ellipse cx="22.5" cy="22.5165" rx="22.5" ry="22.3367" fill="white"/>
<mask id="path-2-inside-1_60_981" fill="white">
<path fill-rule="evenodd" clip-rule="evenodd" d="M22.5465 13.2565C24.3808 12.1052 26.8176 11.7872 28.9227 12.4569C33.5018 13.9229 34.9233 18.8787 33.6519 22.8221C31.69 29.0154 23.3113 33.6352 22.956 33.829C22.8296 33.8984 22.6897 33.9331 22.5499 33.9331C22.41 33.9331 22.2712 33.8995 22.1449 33.8312C21.7917 33.6397 13.474 29.0882 11.4467 22.8232C11.4456 22.8232 11.4456 22.8221 11.4456 22.8221C10.173 18.8776 11.59 13.9207 16.1646 12.4569C18.3126 11.767 20.6534 12.0705 22.5465 13.2565ZM16.6835 14.0562C12.9821 15.2411 12.0525 19.1934 13.0577 22.3102C14.6393 27.1955 20.8881 31.1455 22.5487 32.1233C24.215 31.1355 30.5089 27.1417 32.0398 22.3147C33.0449 19.1945 32.112 15.2422 28.4049 14.0562C26.6089 13.4839 24.5139 13.8322 23.0677 14.9432C22.7653 15.1739 22.3457 15.1784 22.0411 14.9499C20.509 13.8064 18.5077 13.4716 16.6835 14.0562ZM27.3219 16.2803C28.8595 16.7742 29.9369 18.126 30.0689 19.7242C30.1061 20.1867 29.7598 20.5921 29.2939 20.6291C29.2702 20.6313 29.2476 20.6324 29.2239 20.6324C28.7873 20.6324 28.4173 20.2998 28.3812 19.8608C28.3068 18.9402 27.6863 18.1629 26.8029 17.8796C26.3573 17.7362 26.1136 17.2625 26.2569 16.8224C26.4025 16.3811 26.8751 16.1414 27.3219 16.2803Z"/>
</mask>
<path fill-rule="evenodd" clip-rule="evenodd" d="M22.5465 13.2565C24.3808 12.1052 26.8176 11.7872 28.9227 12.4569C33.5018 13.9229 34.9233 18.8787 33.6519 22.8221C31.69 29.0154 23.3113 33.6352 22.956 33.829C22.8296 33.8984 22.6897 33.9331 22.5499 33.9331C22.41 33.9331 22.2712 33.8995 22.1449 33.8312C21.7917 33.6397 13.474 29.0882 11.4467 22.8232C11.4456 22.8232 11.4456 22.8221 11.4456 22.8221C10.173 18.8776 11.59 13.9207 16.1646 12.4569C18.3126 11.767 20.6534 12.0705 22.5465 13.2565ZM16.6835 14.0562C12.9821 15.2411 12.0525 19.1934 13.0577 22.3102C14.6393 27.1955 20.8881 31.1455 22.5487 32.1233C24.215 31.1355 30.5089 27.1417 32.0398 22.3147C33.0449 19.1945 32.112 15.2422 28.4049 14.0562C26.6089 13.4839 24.5139 13.8322 23.0677 14.9432C22.7653 15.1739 22.3457 15.1784 22.0411 14.9499C20.509 13.8064 18.5077 13.4716 16.6835 14.0562ZM27.3219 16.2803C28.8595 16.7742 29.9369 18.126 30.0689 19.7242C30.1061 20.1867 29.7598 20.5921 29.2939 20.6291C29.2702 20.6313 29.2476 20.6324 29.2239 20.6324C28.7873 20.6324 28.4173 20.2998 28.3812 19.8608C28.3068 18.9402 27.6863 18.1629 26.8029 17.8796C26.3573 17.7362 26.1136 17.2625 26.2569 16.8224C26.4025 16.3811 26.8751 16.1414 27.3219 16.2803Z" fill="black"/>
<path d="M22.5465 13.2565L21.4846 14.9514L22.5474 15.6172L23.6097 14.9505L22.5465 13.2565ZM28.9227 12.4569L29.5325 10.5521L29.5291 10.551L28.9227 12.4569ZM33.6519 22.8221L31.7484 22.2083L31.7453 22.2181L33.6519 22.8221ZM22.956 33.829L21.9986 32.073L21.9927 32.0762L22.956 33.829ZM22.1449 33.8312L21.1913 35.5893L21.1936 35.5905L22.1449 33.8312ZM11.4467 22.8232L13.3496 22.2074L12.9016 20.8232H11.4467V22.8232ZM11.4456 22.8221L13.4456 22.822L13.4456 22.5074L13.349 22.208L11.4456 22.8221ZM16.1646 12.4569L16.7741 14.3618L16.7762 14.3611L16.1646 12.4569ZM16.6835 14.0562L17.2933 15.961L17.2939 15.9608L16.6835 14.0562ZM13.0577 22.3102L11.1542 22.9241L11.1549 22.9263L13.0577 22.3102ZM22.5487 32.1233L21.534 33.8467L22.5522 34.4462L23.5686 33.8437L22.5487 32.1233ZM32.0398 22.3147L30.1361 21.7014L30.1334 21.7101L32.0398 22.3147ZM28.4049 14.0562L29.0143 12.1513L29.0121 12.1506L28.4049 14.0562ZM23.0677 14.9432L24.2809 16.5332L24.286 16.5292L23.0677 14.9432ZM22.0411 14.9499L23.2411 13.35L23.2373 13.3471L22.0411 14.9499ZM27.3219 16.2803L27.9335 14.3761L27.9246 14.3732L27.9156 14.3704L27.3219 16.2803ZM30.0689 19.7242L32.0625 19.5637L32.0621 19.5595L30.0689 19.7242ZM29.2939 20.6291L29.1357 18.6353L29.1207 18.6365L29.1056 18.638L29.2939 20.6291ZM28.3812 19.8608L26.3877 20.022L26.3879 20.0247L28.3812 19.8608ZM26.8029 17.8796L26.1905 19.7835L26.1921 19.784L26.8029 17.8796ZM26.2569 16.8224L24.3575 16.1959L24.3551 16.2033L26.2569 16.8224ZM23.6097 14.9505C24.9455 14.1121 26.7716 13.8713 28.3164 14.3628L29.5291 10.551C26.8636 9.70301 23.8161 10.0984 21.4833 11.5626L23.6097 14.9505ZM28.3129 14.3617C31.5209 15.3887 32.7926 18.9695 31.7484 22.2083L35.5554 23.4358C37.054 18.7879 35.4828 12.4571 29.5325 10.5521L28.3129 14.3617ZM31.7453 22.2181C30.9449 24.7447 28.7383 27.1405 26.434 29.0282C24.1852 30.8706 22.122 32.0057 21.9986 32.073L23.9134 35.5849C24.1453 35.4584 26.4491 34.1868 28.969 32.1225C31.4334 30.1035 34.397 27.0928 35.5585 23.426L31.7453 22.2181ZM21.9927 32.0762C22.1668 31.9805 22.359 31.9331 22.5499 31.9331V35.9331C23.0204 35.9331 23.4924 35.8163 23.9192 35.5817L21.9927 32.0762ZM22.5499 31.9331C22.7322 31.9331 22.9216 31.9776 23.0961 32.0719L21.1936 35.5905C21.6208 35.8215 22.0878 35.9331 22.5499 35.9331V31.9331ZM23.0984 32.0731C22.9755 32.0065 20.9298 30.8894 18.6901 29.0569C16.399 27.1822 14.1823 24.781 13.3496 22.2074L9.54384 23.4389C10.7383 27.1304 13.6942 30.1374 16.1571 32.1526C18.6714 34.2099 20.961 35.4644 21.1913 35.5893L23.0984 32.0731ZM11.4467 20.8232C11.7936 20.8232 12.1869 20.9149 12.5502 21.1554C12.9016 21.3881 13.1122 21.6851 13.2321 21.9232C13.3479 22.1533 13.3959 22.3594 13.418 22.4912C13.4299 22.5618 13.4366 22.6251 13.4404 22.6786C13.4424 22.7057 13.4436 22.7312 13.4444 22.7549C13.4448 22.7668 13.4451 22.7784 13.4453 22.7895C13.4454 22.7951 13.4455 22.8006 13.4455 22.806C13.4455 22.8087 13.4455 22.8114 13.4456 22.8141C13.4456 22.8154 13.4456 22.8168 13.4456 22.8181C13.4456 22.8187 13.4456 22.8197 13.4456 22.8201C13.4456 22.821 13.4456 22.822 11.4456 22.8221C9.44557 22.8221 9.44557 22.8231 9.44557 22.8241C9.44557 22.8244 9.44557 22.8254 9.44557 22.826C9.44557 22.8274 9.44558 22.8287 9.44558 22.83C9.44559 22.8327 9.44561 22.8354 9.44563 22.8381C9.44567 22.8435 9.44574 22.849 9.44583 22.8546C9.44601 22.8657 9.44629 22.8773 9.44669 22.8892C9.44749 22.9129 9.44877 22.9385 9.45072 22.9656C9.45458 23.0192 9.4613 23.0825 9.47317 23.1533C9.49533 23.2853 9.54337 23.4917 9.65934 23.722C9.7794 23.9605 9.99019 24.2577 10.3419 24.4906C10.7055 24.7313 11.0993 24.8232 11.4467 24.8232V20.8232ZM13.349 22.208C12.3027 18.9649 13.5737 15.3858 16.7741 14.3618L15.5551 10.552C9.60621 12.4555 8.04334 18.7902 9.54217 23.4361L13.349 22.208ZM16.7762 14.3611C18.359 13.8527 20.0879 14.0763 21.4846 14.9514L23.6083 11.5617C21.219 10.0647 18.2661 9.68129 15.553 10.5527L16.7762 14.3611ZM16.0738 12.1514C13.588 12.9472 11.9961 14.7117 11.2319 16.7594C10.4875 18.7541 10.5296 20.9874 11.1542 22.9241L14.9611 21.6964C14.5806 20.5163 14.5849 19.215 14.9794 18.158C15.354 17.1542 16.0776 16.3501 17.2933 15.961L16.0738 12.1514ZM11.1549 22.9263C12.1144 25.8897 14.4034 28.3919 16.4571 30.1877C18.5541 32.0213 20.6474 33.3248 21.534 33.8467L23.5634 30.3998C22.7894 29.9441 20.9281 28.7836 19.0901 27.1765C17.2088 25.5315 15.5827 23.616 14.9604 21.6942L11.1549 22.9263ZM23.5686 33.8437C24.4556 33.3178 26.5602 32.0017 28.6615 30.1643C30.7156 28.3682 33.012 25.8649 33.9462 22.9193L30.1334 21.7101C29.5366 23.5915 27.9206 25.4986 26.0285 27.1531C24.1836 28.7663 22.3081 29.9409 21.5288 30.4029L23.5686 33.8437ZM33.9434 22.928C34.568 20.9894 34.6091 18.7549 33.8627 16.7594C33.0963 14.7108 31.5018 12.9471 29.0143 12.1513L27.7955 15.9611C29.0151 16.3513 29.7406 17.1567 30.1162 18.1609C30.5117 19.2181 30.5168 20.5199 30.1361 21.7015L33.9434 22.928ZM29.0121 12.1506C26.6168 11.3873 23.8353 11.8315 21.8493 13.3571L24.286 16.5292C25.1925 15.8329 26.601 15.5805 27.7977 15.9618L29.0121 12.1506ZM21.8544 13.3532C22.254 13.0483 22.8201 13.0341 23.2411 13.35L20.841 16.5499C21.8713 17.3226 23.2766 17.2995 24.2809 16.5331L21.8544 13.3532ZM23.2373 13.3471C21.187 11.8168 18.5127 11.3698 16.0731 12.1516L17.2939 15.9608C18.5028 15.5734 19.831 15.7961 20.8448 16.5527L23.2373 13.3471ZM26.7103 18.1845C27.4842 18.4331 28.0108 19.1028 28.0757 19.8888L32.0621 19.5595C31.8631 17.1492 30.2349 15.1153 27.9335 14.3761L26.7103 18.1845ZM28.0754 19.8846C28.0232 19.2371 28.5078 18.6851 29.1357 18.6353L29.452 22.6228C31.0118 22.4991 32.189 21.1363 32.0625 19.5637L28.0754 19.8846ZM29.1056 18.638C29.1411 18.6346 29.1815 18.6324 29.2239 18.6324V22.6324C29.3138 22.6324 29.3992 22.628 29.4821 22.6202L29.1056 18.638ZM29.2239 18.6324C29.8074 18.6324 30.3236 19.0776 30.3745 19.6969L26.3879 20.0247C26.5111 21.522 27.7673 22.6324 29.2239 22.6324V18.6324ZM30.3747 19.6996C30.2343 17.9638 29.0611 16.5036 27.4138 15.9752L26.1921 19.784C26.3114 19.8223 26.3792 19.9166 26.3877 20.022L30.3747 19.6996ZM27.4154 15.9757C28.0102 16.167 28.3626 16.8151 28.1587 17.4414L24.3551 16.2033C23.8647 17.7099 24.7044 19.3054 26.1905 19.7835L27.4154 15.9757ZM28.1563 17.4488C27.9541 18.0618 27.3052 18.3695 26.7282 18.1901L27.9156 14.3704C26.445 13.9133 24.8508 14.7004 24.3576 16.1959L28.1563 17.4488Z" fill="#323232" mask="url(#path-2-inside-1_60_981)"/>
</svg>
