<svg width="45" height="46" viewBox="0 0 45 46" fill="none" xmlns="http://www.w3.org/2000/svg">
<ellipse cx="22.5" cy="23.1248" rx="22.5" ry="22.3367" fill="white"/>
<path fill-rule="evenodd" clip-rule="evenodd" d="M22.3842 12.7008C25.1592 12.7008 27.4517 14.8 27.7344 17.4847L27.8133 17.4857C29.3527 17.4857 31.2245 18.5006 31.8562 21.3474L32.6938 27.7841C32.9943 29.8615 32.6185 31.5278 31.5748 32.723C30.5365 33.9119 28.893 34.5411 26.8217 34.5411H17.9587C15.6835 34.5411 14.0985 33.9878 13.1121 32.8506C12.1216 31.7102 11.7904 29.9995 12.128 27.7672L12.9518 21.4159C13.4933 18.5038 15.4733 17.4857 17.0064 17.4857C17.1388 16.2741 17.6891 15.1215 18.5621 14.2575C19.5654 13.2678 20.9488 12.7008 22.3619 12.7008H22.3842ZM27.8133 19.0666H17.0064C16.5382 19.0666 14.9733 19.2542 14.5242 21.6615L13.7046 27.9854C13.4381 29.7592 13.6441 31.043 14.3182 31.8198C14.9839 32.5871 16.1751 32.9602 17.9587 32.9602H26.8217C27.9343 32.9602 29.4536 32.7399 30.3709 31.688C31.0992 30.8543 31.3498 29.6127 31.1162 27.997L30.2891 21.6183C29.9367 20.0468 29.0066 19.0666 27.8133 19.0666ZM25.4806 22.001C25.9201 22.001 26.3012 22.3551 26.3012 22.7915C26.3012 23.2278 25.9689 23.582 25.5294 23.582H25.4806C25.041 23.582 24.6843 23.2278 24.6843 22.7915C24.6843 22.3551 25.041 22.001 25.4806 22.001ZM19.2908 22.001C19.7304 22.001 20.1115 22.3551 20.1115 22.7915C20.1115 23.2278 19.7781 23.582 19.3386 23.582H19.2908C18.8513 23.582 18.4946 23.2278 18.4946 22.7915C18.4946 22.3551 18.8513 22.001 19.2908 22.001ZM22.381 14.2818H22.365C21.366 14.2818 20.3924 14.6812 19.6864 15.3779C19.1113 15.9463 18.7352 16.6935 18.6135 17.4852L26.1294 17.4855C25.8566 15.6745 24.2791 14.2818 22.381 14.2818Z" fill="#323232"/>
</svg>
