<svg width="16" height="16" viewBox="0 0 16 16" fill="none" xmlns="http://www.w3.org/2000/svg">
<g opacity="0.5">
<path d="M12.2243 9.35867L12.2243 9.3587L15.1767 6.58443L15.1783 6.58294C15.2785 6.48968 15.3143 6.35054 15.2745 6.22394C15.2258 6.09015 15.1055 5.99122 14.9595 5.97051L14.9584 5.97036L11.035 5.40532L11.0311 5.40475L11.0311 5.40474C10.5889 5.33748 10.2031 5.05983 10.0033 4.65567C10.003 4.65518 10.0028 4.65469 10.0026 4.6542L8.25412 1.15768C8.19875 1.05294 8.09543 0.978758 7.97378 0.959839H7.77053L7.72727 0.977522L7.71832 0.981182L7.70923 0.984493L7.68748 0.992416L7.66518 1.01692L7.63052 1.04368L7.58581 1.0782C7.56997 1.09574 7.5548 1.11698 7.54133 1.14187L5.81594 4.65364L5.81376 4.65808L5.81373 4.65807C5.60413 5.07422 5.1974 5.35538 4.73474 5.40662L0.823889 5.96985C0.681593 5.99296 0.565809 6.09171 0.52053 6.22455L0.519175 6.22847C0.475343 6.35365 0.507795 6.4935 0.606305 6.58851L12.2243 9.35867ZM12.2243 9.35867L12.22 9.36275C11.8967 9.67382 11.748 10.1239 11.8217 10.5656L11.8216 10.5656L11.8229 10.5728L12.5247 14.4282C12.5247 14.4282 12.5247 14.4283 12.5247 14.4284C12.5484 14.5596 12.4931 14.6946 12.3787 14.773L12.3786 14.7729L12.3678 14.7807C12.2539 14.8634 12.1 14.8745 11.9727 14.8067L11.9728 14.8067L11.9677 14.8041L8.47308 12.9947C8.28191 12.894 8.0722 12.8413 7.86092 12.8353L7.85384 12.8351H7.84675H7.63281H7.59605L7.55968 12.8405C7.4321 12.8593 7.30463 12.8998 7.18547 12.9639L3.69631 14.7787C3.61904 14.8164 3.53252 14.8302 3.44764 14.8181C3.24945 14.7773 3.12263 14.5911 3.15231 14.3991L3.85395 10.5486L3.85401 10.5486L3.85533 10.5406C3.92868 10.0976 3.78052 9.64772 3.45971 9.33416L3.4569 9.33143L0.606478 6.58868L12.2243 9.35867Z" stroke="#323232"/>
</g>
</svg>
