<svg width="45" height="46" viewBox="0 0 45 46" fill="none" xmlns="http://www.w3.org/2000/svg">
<ellipse cx="22.5" cy="22.7328" rx="22.5" ry="22.3367" fill="white"/>
<path fill-rule="evenodd" clip-rule="evenodd" d="M26.7694 12.309C30.5023 12.309 33.011 14.9046 33.011 18.7669V27.6913C33.011 31.5536 30.5023 34.1493 26.7694 34.1493H17.2306C13.5033 34.1493 11 31.5536 11 27.6913V18.7669C11 14.9046 13.5033 12.309 17.2306 12.309H26.7694ZM26.7694 13.9511H17.2306C14.4505 13.9511 12.6541 15.8417 12.6541 18.7669V27.6913C12.6541 30.6176 14.4505 32.5072 17.2306 32.5072H26.7694C29.5561 32.5072 31.3569 30.6176 31.3569 27.6913V18.7669C31.3569 15.8417 29.5561 13.9511 26.7694 13.9511ZM27.4741 23.3653C27.4811 23.3709 27.4879 23.3766 27.5023 23.3899L27.5236 23.4101C27.5279 23.4142 27.5327 23.4188 27.5379 23.4239L27.5994 23.4845C27.7983 23.6822 28.348 24.2395 29.9862 25.9095C30.3049 26.2336 30.2993 26.7536 29.9718 27.07C29.6454 27.3885 29.1205 27.3787 28.8018 27.0546C28.8018 27.0546 26.5423 24.7524 26.3813 24.5969C26.2103 24.4579 25.9357 24.3769 25.6656 24.4031C25.391 24.4305 25.144 24.5608 24.9686 24.7721C22.4058 27.8582 22.3749 27.8877 22.333 27.9282C21.3869 28.85 19.8595 28.8347 18.9299 27.8932C18.9299 27.8932 17.9044 26.8598 17.8867 26.839C17.632 26.6047 17.1776 26.62 16.9053 26.9057L15.218 28.6716C15.0548 28.8424 14.8365 28.9278 14.6181 28.9278C14.413 28.9278 14.209 28.8533 14.0491 28.7022C13.7172 28.3913 13.704 27.8702 14.0182 27.5429L15.7033 25.7771C16.5954 24.8367 18.1007 24.7907 19.0523 25.6774L20.1088 26.7415C20.4032 27.0371 20.8818 27.0426 21.1773 26.7536C21.2887 26.6233 23.6905 23.7277 23.6905 23.7277C24.1471 23.1781 24.7911 22.8387 25.5068 22.7687C26.2236 22.7063 26.9194 22.9132 27.4741 23.3653ZM18.2321 17.3765C19.7561 17.3776 20.9945 18.6081 20.9945 20.1177C20.9945 21.6296 19.755 22.8601 18.2321 22.8601C16.7092 22.8601 15.4708 21.6296 15.4708 20.1177C15.4708 18.6059 16.7092 17.3765 18.2321 17.3765ZM18.231 19.0186C17.6212 19.0186 17.1249 19.5112 17.1249 20.1177C17.1249 20.7242 17.6212 21.218 18.2321 21.218C18.843 21.218 19.3404 20.7242 19.3404 20.1177C19.3404 19.5123 18.843 19.0197 18.231 19.0186Z" fill="#323232"/>
</svg>
