<svg width="52" height="51" viewBox="0 0 52 51" fill="none" xmlns="http://www.w3.org/2000/svg">
<rect x="0.290771" width="51" height="51" rx="25.5" fill="#F3F3F3"/>
<g clip-path="url(#clip0_55_571)">
<path d="M34.9067 21.0611C34.9213 21.258 34.9213 21.4549 34.9213 21.6518C34.9213 27.6564 30.1886 34.5752 21.5386 34.5752C18.8737 34.5752 16.3981 33.8298 14.3157 32.5361C14.6944 32.5783 15.0584 32.5924 15.4516 32.5924C17.6504 32.5924 19.6746 31.8752 21.291 30.6518C19.2232 30.6096 17.4903 29.3018 16.8932 27.5017C17.1845 27.5439 17.4757 27.572 17.7816 27.572C18.2038 27.572 18.6262 27.5158 19.0193 27.4174C16.8641 26.9955 15.2477 25.1674 15.2477 22.9596V22.9033C15.8738 23.2408 16.602 23.4518 17.3737 23.4799C16.1068 22.6642 15.2768 21.272 15.2768 19.697C15.2768 18.8533 15.5098 18.0799 15.9175 17.4049C18.2329 20.1611 21.7133 21.9611 25.616 22.158C25.5432 21.8205 25.4995 21.469 25.4995 21.1174C25.4995 18.6142 27.5964 16.5752 30.2031 16.5752C31.5573 16.5752 32.7806 17.1236 33.6397 18.0096C34.7028 17.8127 35.7221 17.433 36.625 16.9127C36.2755 17.9674 35.5328 18.8533 34.5572 19.4158C35.5037 19.3174 36.4211 19.0642 37.2657 18.7127C36.6251 19.6127 35.8241 20.4142 34.9067 21.0611Z" fill="black"/>
</g>
<defs>
<clipPath id="clip0_55_571">
<rect width="22.95" height="19.125" fill="white" transform="translate(14.3157 16.575)"/>
</clipPath>
</defs>
</svg>
